ffmpeg started on 2016-12-05 at 17:45:19
Report written to "Output/x264/results/ffmpeg/sintelfaster7000k.log"
Command line:
Tools/ffmpeg/ffmpeg -benchmark -y -i Input/y4m/sintel.y4m -c:v libx264 -preset faster -b:v 7000k -an Output/x264/encoded/sintelfaster7000k.mkv
ffmpeg version N-82227-gdb23fde Copyright (c) 2000-2016 the FFmpeg developers
  built with gcc 5.4.0 (Ubuntu 5.4.0-6ubuntu1~16.04.2) 20160609
  configuration: --prefix=/home/jaroslav/ffmpeg_build --pkg-config-flags=--static --extra-cflags=-I/home/jaroslav/ffmpeg_build/include --extra-ldflags=-L/home/jaroslav/ffmpeg_build/lib --bindir=/home/jaroslav/bin --enable-gpl --enable-libass --enable-libfdk-aac --enable-libfreetype --enable-libmp3lame --enable-libopus --enable-libtheora --enable-libvorbis --enable-libvpx --enable-libx264 --enable-libx265 --enable-nvenc --enable-libmfx --enable-libxvid --enable-libgsm --enable-libopencore-amrnb --enable-version3 --enable-nonfree
  libavutil      55. 35.100 / 55. 35.100
  libavcodec     57. 66.101 / 57. 66.101
  libavformat    57. 57.100 / 57. 57.100
  libavdevice    57.  2.100 / 57.  2.100
  libavfilter     6. 66.100 /  6. 66.100
  libswscale      4.  3.100 /  4.  3.100
  libswresample   2.  4.100 /  2.  4.100
  libpostproc    54.  2.100 / 54.  2.100
Input #0, yuv4mpegpipe, from 'Input/y4m/sintel.y4m':
  Duration: 00:00:20.83, start: 0.000000, bitrate: 2057307 kb/s
    Stream #0:0: Video: rawvideo (I420 / 0x30323449), yuv420p(progressive), 4096x1744, SAR 1:1 DAR 256:109, 24 fps, 24 tbr, 24 tbn, 24 tbc
[libx264 @ 0x34d91c0] using SAR=1/1
[libx264 @ 0x34d91c0] using cpu capabilities: MMX2 SSE2Fast SSSE3 SSE4.2 AVX FMA3 AVX2 LZCNT BMI2
[libx264 @ 0x34d91c0] profile High, level 5.1
[libx264 @ 0x34d91c0] 264 - core 148 - H.264/MPEG-4 AVC codec - Copyleft 2003-2016 - http://www.videolan.org/x264.html - options: cabac=1 ref=2 deblock=1:0:0 analyse=0x3:0x113 me=hex subme=4 psy=1 psy_rd=1.00:0.00 mixed_ref=0 me_range=16 chroma_me=1 trellis=1 8x8dct=1 cqm=0 deadzone=21,11 fast_pskip=1 chroma_qp_offset=0 threads=6 lookahead_threads=1 sliced_threads=0 nr=0 decimate=1 interlaced=0 bluray_compat=0 constrained_intra=0 bframes=3 b_pyramid=2 b_adapt=1 b_bias=0 direct=1 weightb=1 open_gop=0 weightp=1 keyint=250 keyint_min=24 scenecut=40 intra_refresh=0 rc_lookahead=20 rc=abr mbtree=1 bitrate=7000 ratetol=1.0 qcomp=0.60 qpmin=0 qpmax=69 qpstep=4 ip_ratio=1.40 aq=1:1.00
Output #0, matroska, to 'Output/x264/encoded/sintelfaster7000k.mkv':
  Metadata:
    encoder         : Lavf57.57.100
    Stream #0:0: Video: h264 (libx264) (H264 / 0x34363248), yuv420p, 4096x1744 [SAR 1:1 DAR 256:109], q=-1--1, 7000 kb/s, 24 fps, 1k tbn, 24 tbc
    Metadata:
      encoder         : Lavc57.66.101 libx264
    Side data:
      cpb: bitrate max/min/avg: 0/0/7000000 buffer size: 0 vbv_delay: -1
Stream mapping:
  Stream #0:0 -> #0:0 (rawvideo (native) -> h264 (libx264))
Press [q] to stop, [?] for help
frame=   11 fps=0.0 q=0.0 size=       0kB time=00:00:00.00 bitrate=N/A speed=   0x    frame=   20 fps= 19 q=0.0 size=       0kB time=00:00:00.00 bitrate=N/A speed=   0x    frame=   27 fps= 11 q=0.0 size=       0kB time=00:00:00.00 bitrate=N/A speed=   0x    frame=   33 fps= 11 q=28.0 size=       1kB time=00:00:00.00 bitrate=5864.0kbits/s speed=0.000328x    frame=   36 fps=9.9 q=34.0 size=       1kB time=00:00:00.12 bitrate=  46.5kbits/s speed=0.0346x    frame=   41 fps=9.8 q=46.0 size=       1kB time=00:00:00.33 bitrate=  17.6kbits/s speed=0.08x    frame=   47 fps= 10 q=46.0 size=       1kB time=00:00:00.58 bitrate=  10.0kbits/s speed=0.125x    frame=   50 fps=5.7 q=46.0 size=       1kB time=00:00:00.70 bitrate=   8.3kbits/s speed=0.0807x    frame=   51 fps=4.5 q=46.0 size=       1kB time=00:00:00.75 bitrate=   7.8kbits/s speed=0.0655x    frame=   61 fps=5.1 q=45.0 size=       1kB time=00:00:01.16 bitrate=   5.0kbits/s speed=0.0976x    frame=   68 fps=5.4 q=45.0 size=       1kB time=00:00:01.45 bitrate=   4.0kbits/s speed=0.117x    frame=   76 fps=5.8 q=44.0 size=       1kB time=00:00:01.79 bitrate=   3.3kbits/s speed=0.138x    frame=   83 fps=6.1 q=43.0 size=       1kB time=00:00:02.08 bitrate=   2.8kbits/s speed=0.154x    frame=   90 fps=6.4 q=43.0 size=       1kB time=00:00:02.37 bitrate=   2.5kbits/s speed=0.169x    frame=   97 fps=6.7 q=43.0 size=       1kB time=00:00:02.66 bitrate=   2.2kbits/s speed=0.183x    frame=  104 fps=6.9 q=43.0 size=       1kB time=00:00:02.95 bitrate=   2.0kbits/s speed=0.196x    frame=  111 fps=7.1 q=43.0 size=       1kB time=00:00:03.25 bitrate=   1.8kbits/s speed=0.208x    frame=  118 fps=7.3 q=42.0 size=       1kB time=00:00:03.54 bitrate=   1.7kbits/s speed=0.219x    frame=  125 fps=7.5 q=42.0 size=       1kB time=00:00:03.83 bitrate=   1.5kbits/s speed=0.23x    frame=  132 fps=7.7 q=42.0 size=    3892kB time=00:00:04.12 bitrate=7728.1kbits/s speed=0.24x    frame=  138 fps=7.7 q=42.0 size=    3892kB time=00:00:04.37 bitrate=7286.6kbits/s speed=0.246x    frame=  149 fps=8.1 q=42.0 size=    3892kB time=00:00:04.83 bitrate=6596.2kbits/s speed=0.263x    frame=  154 fps=8.1 q=41.0 size=    3892kB time=00:00:05.04 bitrate=6322.8kbits/s speed=0.267x    frame=  163 fps=8.4 q=42.0 size=    3892kB time=00:00:05.41 bitrate=5885.2kbits/s speed=0.279x    frame=  171 fps=8.6 q=42.0 size=    3892kB time=00:00:05.75 bitrate=5544.4kbits/s speed=0.288x    frame=  179 fps=8.7 q=41.0 size=    3892kB time=00:00:06.08 bitrate=5241.0kbits/s speed=0.297x    frame=  187 fps=8.9 q=41.0 size=    5802kB time=00:00:06.41 bitrate=7406.1kbits/s speed=0.305x    frame=  195 fps=9.0 q=41.0 size=    5802kB time=00:00:06.75 bitrate=7040.8kbits/s speed=0.313x    frame=  202 fps=9.1 q=41.0 size=    5802kB time=00:00:07.04 bitrate=6748.9kbits/s speed=0.319x    frame=  209 fps=9.1 q=38.0 size=    5802kB time=00:00:07.33 bitrate=6481.1kbits/s speed=0.321x    frame=  218 fps=9.3 q=41.0 size=    6584kB time=00:00:07.70 bitrate=6996.9kbits/s speed=0.329x    frame=  225 fps=9.4 q=40.0 size=    6584kB time=00:00:08.00 bitrate=6741.5kbits/s speed=0.335x    frame=  232 fps=9.5 q=40.0 size=    6584kB time=00:00:08.29 bitrate=6504.2kbits/s speed=0.34x    frame=  241 fps=9.6 q=40.0 size=    6584kB time=00:00:08.66 bitrate=6222.8kbits/s speed=0.345x    frame=  249 fps=9.7 q=40.0 size=    6584kB time=00:00:09.00 bitrate=5992.6kbits/s speed=0.35x    frame=  257 fps=9.8 q=40.0 size=    6584kB time=00:00:09.33 bitrate=5778.8kbits/s speed=0.355x    frame=  265 fps=9.9 q=40.0 size=    6584kB time=00:00:09.66 bitrate=5579.1kbits/s speed=0.361x    frame=  273 fps= 10 q=39.0 size=    6584kB time=00:00:10.00 bitrate=5393.4kbits/s speed=0.366x    frame=  282 fps= 10 q=39.0 size=    6584kB time=00:00:10.37 bitrate=5198.5kbits/s speed=0.372x    frame=  290 fps= 10 q=39.0 size=    6584kB time=00:00:10.70 bitrate=5036.8kbits/s speed=0.377x    frame=  297 fps= 10 q=39.0 size=    8748kB time=00:00:11.00 bitrate=6514.6kbits/s speed=0.378x    frame=  307 fps= 10 q=38.0 size=    8748kB time=00:00:11.41 bitrate=6276.7kbits/s speed=0.385x    frame=  317 fps= 10 q=38.0 size=    8748kB time=00:00:11.83 bitrate=6056.1kbits/s speed=0.391x    frame=  326 fps= 11 q=38.0 size=    8748kB time=00:00:12.20 bitrate=5870.1kbits/s speed=0.397x    frame=  335 fps= 11 q=37.0 size=    8748kB time=00:00:12.58 bitrate=5695.1kbits/s speed=0.402x    frame=  345 fps= 11 q=37.0 size=    8748kB time=00:00:13.00 bitrate=5512.5kbits/s speed=0.409x    frame=  355 fps= 11 q=36.0 size=    8748kB time=00:00:13.41 bitrate=5341.1kbits/s speed=0.415x    frame=  367 fps= 11 q=36.0 size=    8748kB time=00:00:13.91 bitrate=5149.3kbits/s speed=0.423x    frame=  377 fps= 11 q=35.0 size=    8748kB time=00:00:14.33 bitrate=4999.8kbits/s speed=0.428x    frame=  385 fps= 11 q=35.0 size=    8748kB time=00:00:14.66 bitrate=4886.0kbits/s speed=0.429x    frame=  397 fps= 11 q=35.0 size=   10619kB time=00:00:15.16 bitrate=5735.2kbits/s speed=0.435x    frame=  403 fps= 11 q=35.0 size=   10619kB time=00:00:15.41 bitrate=5642.2kbits/s speed=0.435x    frame=  412 fps= 11 q=34.0 size=   10619kB time=00:00:15.79 bitrate=5508.3kbits/s speed=0.439x    frame=  419 fps= 11 q=34.0 size=   10619kB time=00:00:16.08 bitrate=5408.6kbits/s speed=0.44x    frame=  426 fps= 11 q=34.0 size=   10619kB time=00:00:16.37 bitrate=5312.2kbits/s speed=0.441x    frame=  432 fps= 11 q=35.0 size=   10619kB time=00:00:16.62 bitrate=5232.3kbits/s speed=0.441x    frame=  440 fps= 12 q=35.0 size=   10619kB time=00:00:16.95 bitrate=5129.5kbits/s speed=0.444x    frame=  450 fps= 12 q=35.0 size=   12527kB time=00:00:17.37 bitrate=5906.1kbits/s speed=0.449x    frame=  455 fps= 12 q=34.0 size=   12527kB time=00:00:17.58 bitrate=5836.2kbits/s speed=0.449x    frame=  462 fps= 12 q=35.0 size=   12527kB time=00:00:17.87 bitrate=5740.9kbits/s speed=0.45x    frame=  470 fps= 12 q=34.0 size=   12527kB time=00:00:18.20 bitrate=5635.9kbits/s speed=0.451x    frame=  479 fps= 12 q=34.0 size=   12527kB time=00:00:18.58 bitrate=5522.2kbits/s speed=0.454x    frame=  487 fps= 12 q=34.0 size=   12527kB time=00:00:18.91 bitrate=5424.7kbits/s speed=0.456x    frame=  494 fps= 12 q=34.0 size=   12527kB time=00:00:19.20 bitrate=5342.5kbits/s speed=0.458x    frame=  500 fps= 12 q=34.0 size=   12527kB time=00:00:19.45 bitrate=5273.9kbits/s speed=0.458x    frame=  500 fps= 11 q=-1.0 Lsize=   15065kB time=00:00:20.70 bitrate=5959.2kbits/s speed=0.473x    
video:15060kB audio:0kB subtitle:0kB other streams:0kB global headers:0kB muxing overhead: 0.031923%
bench: utime=126.188s
bench: maxrss=1119900kB
[libx264 @ 0x34d91c0] frame I:8     Avg QP:29.35  size: 96762
[libx264 @ 0x34d91c0] frame P:269   Avg QP:34.77  size: 36017
[libx264 @ 0x34d91c0] frame B:223   Avg QP:32.78  size: 22234
[libx264 @ 0x34d91c0] consecutive B-frames: 37.0%  8.4%  6.6% 48.0%
[libx264 @ 0x34d91c0] mb I  I16..4: 42.2% 53.6%  4.2%
[libx264 @ 0x34d91c0] mb P  I16..4: 29.4% 27.3%  0.2%  P16..4:  8.2%  1.4%  0.2%  0.0%  0.0%    skip:33.2%
[libx264 @ 0x34d91c0] mb B  I16..4:  6.1%  5.3%  0.2%  B16..8: 15.4%  1.2%  0.0%  direct: 6.0%  skip:65.6%  L0:42.8% L1:53.7% BI: 3.5%
[libx264 @ 0x34d91c0] final ratefactor: 31.88
[libx264 @ 0x34d91c0] 8x8 transform intra:47.9% inter:84.2%
[libx264 @ 0x34d91c0] coded y,uvDC,uvAC intra: 15.2% 17.6% 0.6% inter: 3.1% 2.4% 0.0%
[libx264 @ 0x34d91c0] i16 v,h,dc,p: 49% 26% 13% 12%
[libx264 @ 0x34d91c0] i8 v,h,dc,ddl,ddr,vr,hd,vl,hu: 15% 22% 47%  3%  2%  2%  3%  2%  3%
[libx264 @ 0x34d91c0] i4 v,h,dc,ddl,ddr,vr,hd,vl,hu: 14% 21% 11%  9% 11%  7% 11%  5%  9%
[libx264 @ 0x34d91c0] i8c dc,h,v,p: 83%  8%  8%  1%
[libx264 @ 0x34d91c0] Weighted P-Frames: Y:0.7% UV:0.0%
[libx264 @ 0x34d91c0] ref P L0: 79.7% 20.3%
[libx264 @ 0x34d91c0] ref B L0: 87.7% 12.3%
[libx264 @ 0x34d91c0] ref B L1: 97.1%  2.9%
[libx264 @ 0x34d91c0] kb/s:5921.52
